<svg xmlns="http://www.w3.org/2000/svg" version="1.1" xmlns:xlink="http://www.w3.org/1999/xlink" xmlns:svgjs="http://svgjs.dev/svgjs" width="1440" height="560" preserveAspectRatio="none" viewBox="0 0 1440 560"><g mask="url(&quot;#SvgjsMask1008&quot;)" fill="none"><rect width="1440" height="560" x="0" y="0" fill="rgba(200, 215, 216, 1)"></rect><path d="M255.05 608.62C378.41 607.44 492.48 477.92 730.87 477.89 969.27 477.86 968.78 547.89 1206.7 547.89 1444.61 547.89 1562.28 478.08 1682.52 477.89" stroke="rgba(197, 0, 0, 1)" stroke-width="2"></path><path d="M281.81 647.94C472.06 618.75 569.73 165.88 879.74 162.92 1189.75 159.96 1323.14 318.42 1477.67 319.72" stroke="rgba(197, 0, 0, 1)" stroke-width="2"></path><path d="M558.79 642.16C674.43 602.16 627.75 262.89 865.7 260.9 1103.65 258.91 1322.13 400.02 1479.52 400.9" stroke="rgba(197, 0, 0, 1)" stroke-width="2"></path><path d="M270.1 591.77C434.3 585.65 542.27 333.54 869.47 322.06 1196.67 310.58 1305.83 69.84 1468.84 64.46" stroke="rgba(197, 0, 0, 1)" stroke-width="2"></path><path d="M541.51 641C648.63 612.89 614.39 318.91 845.14 318.42 1075.89 317.93 1294.52 490.33 1452.41 492.02" stroke="rgba(197, 0, 0, 1)" stroke-width="2"></path></g><defs><mask id="SvgjsMask1008"><rect width="1440" height="560" fill="#ffffff"></rect></mask></defs></svg>